<svg width="28" height="28" viewBox="0 0 28 28" fill="none" xmlns="http://www.w3.org/2000/svg">
<path d="M14 -4.56708e-07C6.26719 -4.56708e-07 0 6.26719 0 14C0 21.7328 6.26719 28 14 28C21.7328 28 28 21.7328 28 14C28 6.26719 21.7328 -4.56708e-07 14 -4.56708e-07ZM14 7C14.9663 7 15.75 7.78367 15.75 8.75C15.75 9.71633 14.9663 10.5 14 10.5C13.0337 10.5 12.25 9.71797 12.25 8.75C12.25 7.78203 13.032 7 14 7ZM16.1875 21H11.8125C11.0906 21 10.5 20.4148 10.5 19.6875C10.5 18.9602 11.0879 18.375 11.8125 18.375H12.6875V14.875H12.25C11.5254 14.875 10.9375 14.2871 10.9375 13.5625C10.9375 12.8379 11.5281 12.25 12.25 12.25H14C14.7246 12.25 15.3125 12.8379 15.3125 13.5625V18.375H16.1875C16.9121 18.375 17.5 18.9629 17.5 19.6875C17.5 20.4121 16.9148 21 16.1875 21Z" fill="#CBD5E0"/>
</svg>
